<svg
  xmlns="http://www.w3.org/2000/svg"
  viewBox="0 0 60 60"
>
  <g
    transform="matrix(0.6037735939025879,0,0,0.6037735939025879,-0.18898141384124756,-0.18898141384124756)"
    stroke="none"
    fill="#e96d77"
  >
    <path
      d="M50 69.23c-10.603 0-19.229-8.627-19.229-19.23S39.397 30.771 50 30.771c10.604 0 19.23 8.626 19.23 19.229 0 10.604-8.626 19.23-19.23 19.23zm0-30.459c-6.191 0-11.229 5.037-11.229 11.229 0 6.192 5.037 11.23 11.229 11.23 6.192 0 11.23-5.038 11.23-11.23 0-6.191-5.038-11.229-11.23-11.229z"
    >
    </path>
    
    <path
      d="M50 84.457C31 84.457 15.542 69 15.542 50S31 15.542 50 15.542 84.457 31 84.457 50 69 84.457 50 84.457zm0-60.915c-14.589 0-26.458 11.869-26.458 26.458 0 14.589 11.869 26.457 26.458 26.457 14.589 0 26.457-11.868 26.457-26.457S64.589 23.542 50 23.542z"
    >
    </path>
    
    <path
      d="M50 99.688C22.603 99.688.313 77.397.313 50S22.603.313 50 .313 99.688 22.603 99.688 50 77.397 99.688 50 99.688zm0-91.375C27.014 8.313 8.313 27.014 8.313 50S27.014 91.688 50 91.688 91.688 72.986 91.688 50 72.986 8.313 50 8.313z"
    >
    </path>
  </g>
</svg>