<svg
  xmlns="http://www.w3.org/2000/svg"
  viewBox="0 0 445 110">
    <g
      fill="#ffffff"
      transform="matrix(3.7664785385131836,0,0,3.7664785385131836,126.29905700683594,21.51111602783203)"
    >
      <path d="M5.41 12.74C7.93 12.74 9.91 11.22 9.91 9.26L9.91 2.10L7.23 2.10L7.23 8.75C7.23 9.68 6.42 10.41 5.41 10.41C4.39 10.41 3.59 9.68 3.59 8.75L3.59 2.10L0.91 2.10L0.91 9.26C0.91 11.22 2.89 12.74 5.41 12.74ZM16.21 5.46C15.47 5.46 14.84 5.71 14.37 6.11L14.37 5.62L11.78 5.60L11.78 16.80L14.37 16.82L14.37 12.09C14.84 12.50 15.47 12.74 16.21 12.74C18.10 12.74 19.58 11.15 19.58 9.10C19.58 7.05 18.10 5.46 16.21 5.46ZM15.61 10.48C14.84 10.48 14.23 9.89 14.23 9.10C14.23 8.31 14.84 7.72 15.61 7.72C16.40 7.72 16.99 8.31 16.99 9.10C16.99 9.89 16.40 10.48 15.61 10.48ZM23.45 12.74C25.15 12.74 26.11 11.73 26.11 10.40C26.11 8.94 24.89 8.37 23.87 7.96C23.49 7.81 23.29 7.74 23.29 7.58C23.29 7.46 23.40 7.32 23.73 7.32C24.19 7.32 24.61 7.58 24.85 7.81L25.99 6.32C25.38 5.81 24.54 5.46 23.54 5.46C21.75 5.46 20.76 6.62 20.76 7.79C20.76 9.28 22.38 9.71 23.01 9.96C23.59 10.17 23.73 10.33 23.73 10.48C23.73 10.66 23.56 10.76 23.26 10.76C23.00 10.76 22.54 10.69 22.16 10.08L20.34 11.03C20.79 12.18 22.17 12.74 23.45 12.74ZM31.87 7.53L31.87 5.60L30.26 5.60L30.26 3.03L27.67 3.03L27.67 5.60L26.50 5.60L26.50 7.53L27.67 7.53L27.67 9.91C27.67 11.50 29.03 12.74 30.64 12.74C31.15 12.74 31.66 12.64 31.83 12.51L31.83 10.50L30.98 10.50C30.54 10.50 30.26 10.15 30.26 9.59L30.26 7.53ZM41.00 10.50C40.72 10.50 40.41 10.45 40.41 9.89L40.41 5.60L37.82 5.60L37.82 6.11C37.35 5.71 36.73 5.46 36.00 5.46C34.09 5.46 32.60 7.05 32.60 9.10C32.60 11.15 34.09 12.74 36.00 12.74C37.01 12.74 37.80 12.29 38.31 11.53C38.82 12.27 39.66 12.74 40.65 12.74C40.88 12.74 41.09 12.67 41.25 12.60L41.25 10.50ZM36.59 10.48C35.80 10.48 35.19 9.89 35.19 9.10C35.19 8.31 35.80 7.72 36.59 7.72C37.35 7.72 37.98 8.31 37.98 9.10C37.98 9.22 37.96 9.35 37.92 9.45L37.85 9.66C37.64 10.15 37.15 10.48 36.59 10.48ZM47.22 5.46C46.36 5.46 45.61 5.90 45.10 6.60L45.10 5.60L42.51 5.60L42.51 12.60L45.10 12.60L45.10 8.68C45.10 8.12 45.57 7.72 46.15 7.72C46.73 7.72 47.11 8.12 47.11 8.68L47.11 12.60L49.70 12.60L49.70 8.17C49.70 6.62 48.62 5.46 47.22 5.46ZM56.18 0.91L56.18 6.11C55.70 5.71 55.09 5.46 54.36 5.46C52.45 5.46 50.96 7.05 50.96 9.10C50.96 11.15 52.45 12.74 54.36 12.74C55.09 12.74 55.70 12.50 56.18 12.09L56.18 12.62L58.77 12.60L58.77 0.89ZM54.95 10.48C54.16 10.48 53.55 9.89 53.55 9.10C53.55 8.31 54.16 7.72 54.95 7.72C55.70 7.72 56.33 8.31 56.33 9.10C56.33 9.89 55.70 10.48 54.95 10.48ZM71.51 4.43L71.51 2.10L65.00 2.10L65.00 12.60L67.67 12.60L67.67 8.51L70.91 8.51L70.91 6.20L67.67 6.20L67.67 4.43ZM81.71 2.10L78.59 8.79L75.50 2.10L72.59 2.10L72.59 12.60L75.27 12.60L75.27 6.95L77.88 12.60L79.31 12.60L81.92 6.98L81.92 12.60L84.60 12.60L84.60 2.10Z">
      </path>
    </g>

    <g
      transform="matrix(1.1041666269302368,0,0,1.1041666269302368,0.10411659628152847,0.10411659628152847)"
      stroke="none"
      fill="#e96d77"
    >
      <path d="M50 69.23c-10.603 0-19.229-8.627-19.229-19.23S39.397 30.771 50 30.771c10.604 0 19.23 8.626 19.23 19.229 0 10.604-8.626 19.23-19.23 19.23zm0-30.459c-6.191 0-11.229 5.037-11.229 11.229 0 6.192 5.037 11.23 11.229 11.23 6.192 0 11.23-5.038 11.23-11.23 0-6.191-5.038-11.229-11.23-11.229z">
      </path>
      
      <path
        d="M50 84.457C31 84.457 15.542 69 15.542 50S31 15.542 50 15.542 84.457 31 84.457 50 69 84.457 50 84.457zm0-60.915c-14.589 0-26.458 11.869-26.458 26.458 0 14.589 11.869 26.457 26.458 26.457 14.589 0 26.457-11.868 26.457-26.457S64.589 23.542 50 23.542z"
      >
      </path>
      
      <path
        d="M50 99.688C22.603 99.688.313 77.397.313 50S22.603.313 50 .313 99.688 22.603 99.688 50 77.397 99.688 50 99.688zm0-91.375C27.014 8.313 8.313 27.014 8.313 50S27.014 91.688 50 91.688 91.688 72.986 91.688 50 72.986 8.313 50 8.313z"
      >
      </path>
    </g>
</svg>